<?xml version="1.0" encoding="UTF-8"?>
<svg width="134px" height="48px" viewBox="0 0 134 48" version="1.1" xmlns="http://www.w3.org/2000/svg" xmlns:xlink="http://www.w3.org/1999/xlink">
    <!-- Generator: Sketch 50.2 (55047) - http://www.bohemiancoding.com/sketch -->
    <title>Logo/medium/primary-zip</title>
    <desc>Created with Sketch.</desc>
    <defs></defs>
    <g id="Logo/medium/primary-zip" stroke="none" stroke-width="1" fill="none" fill-rule="evenodd">
        <g id="Logo/item/zip/no-divider">
            <g id="Asset-1">
                <g id="Logo/icon/colour-primary" fill-rule="nonzero">
                    <path d="M47.4820408,17.9753514 L36.7564286,27.5961081 L10.1921939,27.5961081 C7.71441046,27.592779 5.32101799,28.4935007 3.46331633,30.1284324 L16.8612245,18.1076757 L17.0667857,17.9260541 L33.852551,2.85405405 C36.5591386,0.426347468 40.3590117,-0.377130752 43.820795,0.746281862 C47.2825782,1.86969448 49.8803442,4.74932482 50.6355399,8.30044402 C51.3907355,11.8515632 50.1886284,15.5346718 47.4820408,17.9623784 L47.4820408,17.9753514 Z" id="Shape" fill="#F15B41"></path>
                    <ellipse id="Oval" fill="#F99D1D" cx="10.1921939" cy="10.4224865" rx="10.1921939" ry="10.163027"></ellipse>
                    <path d="M10.1921939,27.5961081 C7.71441046,27.592779 5.32101799,28.4935007 3.46331633,30.1284324 L3.37744898,30.2062703 C-0.807291326,33.9591795 -1.14862844,40.3842079 2.61505118,44.5569728 C6.37873081,48.7297378 12.8221983,49.0700983 17.0069388,45.3171892 L36.7590306,27.5987027 L10.1921939,27.5961081 Z" id="Shape" fill="#272560"></path>
                    <path d="M36.7427076,27.6038915 L16.9885419,45.322378 C15.1180395,46.9995871 12.689486,47.924241 10.1739792,47.9170987 L40.6508684,47.9169726 C46.5294563,47.8233016 50.6799481,43.4132396 50.6799481,37.7552428 C50.6799481,32.0972461 46.2155091,27.6821815 40.6508684,27.5935131 L36.7427076,27.6038915 Z" id="Shape" fill="#00B6BD"></path>
                </g>
                <g id="Logo/item/zip/text/primary" transform="translate(62.289062, 0.258065)" fill="#272560" fill-rule="nonzero">
                    <path d="M3.16628676,39.1628108 C2.31776853,39.1940298 1.49687156,38.8602711 0.913602941,38.2469189 C0.342609011,37.6277236 0.0381083412,36.8109823 0.0652573529,35.9714595 C0.0572979956,35.1259044 0.267597834,34.2924443 0.676066176,33.5507027 C1.03491869,32.8874586 1.47314916,32.2697853 1.98121324,31.7111351 L14.5915441,17.5394595 L3.59959559,17.5394595 C2.53459559,17.5394595 1.77238971,17.1762162 1.35474265,16.4549189 C0.948098335,15.7303279 0.745225879,14.9102753 0.767426471,14.0808649 C0.738061739,13.2815117 0.969739096,12.4941772 1.42783088,11.8365405 C1.88187755,11.2141824 2.6208139,10.8610799 3.39338235,10.8972973 L22.8139706,10.8972973 C23.6350864,10.8596928 24.4358971,11.1578391 25.0301103,11.7223784 C25.5808824,12.2698378 25.8601838,13.0482162 25.8601838,14.0341622 C25.8834308,14.8019217 25.7223688,15.5641436 25.3903309,16.2577297 C25.0717061,16.8620223 24.6721774,17.4206169 24.2026471,17.9182703 L11.0702574,32.5180541 L23.5135294,32.5180541 C24.2621058,32.4995336 24.9747224,32.8368339 25.4320956,33.4261622 C25.9194405,34.0850478 26.1653709,34.8898144 26.1290441,35.7068108 C26.1645753,36.5580121 25.959294,37.4020642 25.5365074,38.1431351 C25.1110294,38.8203243 24.3566544,39.1654054 23.296875,39.1654054 L3.16628676,39.1628108 Z" id="Shape"></path>
                    <path d="M33.6727941,39.5364324 C30.2167647,39.5364324 29.4963235,37.7721081 29.4963235,36.2931892 L29.4963235,14.7061622 C29.4963235,13.5775135 29.8382721,12.6642162 30.5169485,11.9922162 C31.195625,11.3202162 32.2762868,10.9777297 33.7328309,10.9777297 C34.9596691,10.9777297 35.9306985,11.2553514 36.6224265,11.8054054 C37.3141544,12.3554595 37.6978676,13.2428108 37.6978676,14.3844324 L37.6978676,36.179027 C37.6978676,37.3647568 37.3219853,38.2365405 36.5806618,38.7736216 C35.8393382,39.3107027 34.8865809,39.5364324 33.6727941,39.5364324 Z M33.6727941,8.66075676 C32.3258824,8.66075676 31.2217279,8.26897297 30.3864338,7.49578378 C29.5511397,6.72259459 29.1152206,5.65621622 29.1152206,4.34594595 C29.0831393,3.18434231 29.5423354,2.06254907 30.3812132,1.25318919 C31.2086765,0.44627027 32.3180515,0.0337297297 33.6727941,0.0337297297 C34.7899644,0.0361513255 35.87589,0.400503828 36.7659926,1.07156757 C37.7370221,1.78248649 38.2303676,2.88778378 38.2303676,4.35632432 C38.2303676,5.66659459 37.8022794,6.72778378 36.9591544,7.50875676 C36.1160294,8.28972973 35.011875,8.66854054 33.6727941,8.66854054 L33.6727941,8.66075676 Z" id="Shape"></path>
                    <path d="M46.7086029,47.8083941 C43.4770588,47.8083941 42.7931618,46.0155105 42.7931618,44.51063 L42.7931618,13.9745281 C42.7652639,13.018087 43.135448,12.092551 43.8163971,11.4162312 C44.4924632,10.7442242 45.5757353,10.4017342 47.0322794,10.4017342 C47.9382227,10.3925854 48.8332248,10.5989792 49.6425735,11.0036864 C50.5013603,11.4421774 50.9477206,12.3009972 50.9477206,13.5334425 C51.1217402,13.3345215 51.3088113,13.1304112 51.5089338,12.9211118 C52.0575247,12.3675743 52.6709819,11.8814974 53.3361397,11.4733129 C54.9528488,10.4702784 56.8260316,9.95142255 58.7316176,9.97881083 C60.5576961,9.94354566 62.3668233,10.3326959 64.0148529,11.1152551 C65.5230873,11.8552849 66.8362473,12.9357582 67.849375,14.270315 C68.9052064,15.6977415 69.6760908,17.3130441 70.1203309,19.0288511 C70.6285133,20.9676437 70.8777616,22.9644884 70.8616544,24.9679399 C70.8803167,27.0087255 70.5935276,29.0409229 70.0106985,30.9978406 C69.495699,32.7361349 68.6503854,34.3602433 67.5204779,35.7823229 C66.4317709,37.1222807 65.0521538,38.2000106 63.4849632,38.9347881 C61.7796966,39.7120348 59.9208512,40.0994812 58.0451103,40.0686378 C56.7889812,40.1044975 55.53579,39.9290515 54.3384926,39.5497135 C53.4786314,39.2599423 52.661395,38.8577039 51.9083088,38.3535929 C51.5001287,38.0781101 51.1237169,37.7587759 50.7858824,37.4013668 L50.7858824,44.3549527 C50.7858824,45.5640464 50.454375,46.4565962 49.7991912,47.006656 C49.1440074,47.5567158 48.1364338,47.8083941 46.7086029,47.8083941 Z M56.6433824,16.8960721 C55.7539389,16.8746875 54.8739148,17.0810869 54.0879044,17.4954297 C53.3482431,17.9123334 52.7143097,18.491873 52.2345956,19.1897176 C51.6956444,19.9792634 51.3023213,20.8578289 51.0730147,21.7843392 C50.8028536,22.8610212 50.6704233,23.9672803 50.6788603,25.0769141 C50.6788603,27.6040755 51.2009191,29.630475 52.2450368,31.1016255 C53.2891544,32.5727759 54.7065441,33.2603507 56.6538235,33.2603507 C58.6011029,33.2603507 60.0184926,32.5234781 61.0025735,31.0056245 C61.9866544,29.4877708 62.5113235,27.4665606 62.5113235,25.0769141 C62.5145887,23.9702043 62.3777794,22.8674818 62.1041176,21.7947177 C61.8747774,20.8722019 61.4899781,19.9949338 60.9660294,19.2000961 C60.4999907,18.5012909 59.8737641,17.9223969 59.1388235,17.5109974 C58.3739931,17.0962721 57.5145373,16.8844854 56.6433824,16.8960721 Z" id="Shape"></path>
                </g>
            </g>
        </g>
    </g>
</svg>