<?xml version="1.0" encoding="utf-8"?>
<!-- Generator: Adobe Illustrator 19.2.0, SVG Export Plug-In . SVG Version: 6.00 Build 0)  -->
<svg version="1.1" id="Layer_1" xmlns="http://www.w3.org/2000/svg" xmlns:xlink="http://www.w3.org/1999/xlink" x="0px" y="0px"
	 viewBox="0 0 1195 266.7" style="enable-background:new 0 0 1195 266.7;" xml:space="preserve">
<style type="text/css">
	.st0{opacity:0.789;fill:url(#path4829_1_);enable-background:new    ;}
	.st1{fill:#E74C3C;}
	.st2{fill:#6D6E72;}
	.st3{font-family:'Montreal-Bold';}
	.st4{font-size:150px;}
</style>
<g id="layer1">
	<g id="g1713" transform="matrix(3.27879 0 0 3.27879 -9.76031 -5.69697)">
		<g>
			
				<linearGradient id="path4829_1_" gradientUnits="userSpaceOnUse" x1="-77.7903" y1="164.2503" x2="-76.8239" y2="163.4065" gradientTransform="matrix(218.4717 0 0 -236.9129 17001.0664 38920.5664)">
				<stop  offset="0" style="stop-color:#000000"/>
				<stop  offset="1" style="stop-color:#000000;stop-opacity:0"/>
			</linearGradient>
			<path id="path4829" class="st0" d="M51.9,6L24,34.5L39,35L15.1,58.8L25.3,59L8.5,77.5L49,54.9L33.9,55l30.6-24.4l-16.5,0
				L75.1,5.2L51.9,6L51.9,6z"/>
		</g>
		<path id="path4828" class="st1" d="M50.5,3.8l-28,28.5l15.1,0.5L13.7,56.6l10.1,0.2L7.1,75.3l40.5-22.6l-15.1,0.2l30.6-24.4
			l-16.5,0L73.7,3L50.5,3.8L50.5,3.8z"/>
	</g>
</g>
<text transform="matrix(1 0 0 1 240.0003 169.667)" class="st2 st3 st4">express</text>
<g>
	<path class="st1" d="M898,149c11.5,0,20.9-4.5,28.2-13.7l15,15.5c-11.9,13.4-25.9,20.1-42.1,20.1c-16.2,0-29.5-5.1-39.9-15.3
		c-10.5-10.2-15.7-23.1-15.7-38.6c0-15.5,5.3-28.5,16-38.9c10.6-10.4,23.7-15.6,39.1-15.6c17.2,0,31.6,6.6,43.2,19.6l-14.5,16.5
		c-7.4-9.2-16.6-13.8-27.6-13.8c-8.8,0-16.3,2.9-22.6,8.6c-6.3,5.8-9.4,13.5-9.4,23.2s2.9,17.6,8.8,23.5
		C882.5,146,889.7,149,898,149z"/>
	<path class="st1" d="M1025.1,169.7h-21.2v-9.8c-5.8,7.3-13,11-21.5,11c-8.6,0-15.7-2.5-21.5-7.4c-5.8-4.9-8.7-11.5-8.7-19.8
		s3-14.4,9-18.5c6-4.1,14.2-6.2,24.6-6.2h16.8v-0.4c0-8.6-4.6-12.9-13.7-12.9c-3.9,0-8,0.8-12.4,2.3c-4.3,1.6-8,3.5-11,5.8
		l-10.1-14.5c10.6-7.7,22.7-11.5,36.3-11.5c9.8,0,17.8,2.5,24,7.3c6.2,4.9,9.3,12.7,9.3,23.2V169.7z M1002.4,138.9V135h-14.1
		c-9,0-13.5,2.8-13.5,8.4c0,2.9,1.1,5.1,3.2,6.7c2.1,1.6,5.2,2.3,9.2,2.3c4,0,7.5-1.2,10.6-3.7
		C1000.9,146.3,1002.4,143,1002.4,138.9z"/>
	<path class="st1" d="M1088.1,108.8c-6.7,0-11.7,2.4-15,7.1c-3.3,4.8-4.9,11-4.9,18.8v35h-22.5V89h22.5v10.7
		c2.9-3.3,6.5-6.1,10.9-8.4c4.3-2.3,8.8-3.5,13.3-3.6l0.2,21.1H1088.1z"/>
	<path class="st1" d="M1134.1,105.2v36.1c0,3.1,0.8,5.5,2.4,7.3c1.6,1.8,3.5,2.6,5.7,2.6c4.2,0,7.7-1.9,10.7-5.7l8.4,15.8
		c-7,6.4-14.4,9.6-22.1,9.6c-7.8,0-14.3-2.6-19.7-7.7c-5.4-5.1-8-12-8-20.8v-37.2h-9.4V89h9.4V64.8h22.7V89h19.5v16.2H1134.1z"/>
</g>
</svg>
